# xmcd
#
# Track frame offsets:
#	150
#	12657
#	27860
#	50017
#
# Disc length: 865 seconds
#
# Revision: 1
# Processed by: cddbd v1.5PL3 Copyright (c) Steve Scherf et al.
# Submitted via: CDex 1.50Beta5
#
DISCID=2e035f04
DTITLE=とんねるず - これが出光のまいどCDだ。
DYEAR=1900
DGENRE=
TTITLE0=とんねるずCMメドレー
TTITLE1=まいどサルサ
TTITLE2=おまえ百までわしゃ九十九まで
TTITLE3=とんねるずのテーマ
EXTD=
EXTT0=
EXTT1=
EXTT2=
EXTT3=
PLAYORDER=
